<svg width="120" height="120" viewBox="0 0 120 120" fill="none" xmlns="http://www.w3.org/2000/svg">
<rect x="2.5" y="2.5" width="115" height="115" stroke="black" stroke-width="5"/>
<g clip-path="url(#clip0_284_194)">
<path fill-rule="evenodd" clip-rule="evenodd" d="M65.5379 50.8284C67.5067 49.8512 70.0112 48.4122 72.5192 46.4404C73.0478 47.534 73.1062 48.4882 72.8333 49.2584C72.6402 49.8013 72.2761 50.2736 71.7982 50.6493C71.2804 51.0551 70.6333 51.3512 69.9182 51.5108C68.5614 51.8152 66.9769 51.6372 65.5379 50.8279M65.8793 60.8435L68.4851 62.3424C63.1645 65.3122 61.7177 70.8265 59.9992 76.1972C58.2813 70.8265 56.8345 65.3116 51.5138 62.3424L54.1196 60.8435C54.6369 60.6489 54.9694 60.1451 54.9431 59.595C54.7042 54.565 56.0682 52.3404 57.9082 50.9442C58.5679 50.4439 59.2883 50.1929 59.9992 50.1929C60.7101 50.1929 61.4305 50.4439 62.0901 50.9442C63.9296 52.341 65.2936 54.565 65.0552 59.595C65.029 60.1451 65.3621 60.6489 65.8787 60.8435H65.8793ZM59.9998 28C63.012 28.0807 66.0319 28.6628 68.6526 29.7956C70.4676 30.5812 72.1605 31.6184 73.6943 32.8592C74.3867 33.4193 74.957 33.9605 75.585 34.5835C77.2791 34.6417 79.755 32.7678 80.9045 31.0144C78.9261 37.4721 69.8997 45.0976 63.6507 48.0158C63.6484 48.0147 63.6466 48.0135 63.6448 48.0123C62.5233 47.1596 61.2619 46.733 60.0004 46.733C58.7389 46.733 57.4774 47.1596 56.356 48.0123C56.3542 48.0135 56.3524 48.0152 56.35 48.0158C50.0998 45.0976 41.074 37.4715 39.0957 31.0144C40.2452 32.7678 42.7204 34.6423 44.4145 34.5835C45.0426 33.9611 45.6128 33.4193 46.3053 32.8592C47.8385 31.6184 49.532 30.5812 51.347 29.7956C53.9683 28.6628 56.9876 28.0807 59.9998 28ZM54.4617 50.8284C52.4935 49.8512 49.9884 48.4122 47.4803 46.4404C46.9518 47.534 46.8934 48.4882 47.1657 49.2584C47.3588 49.8013 47.7229 50.2736 48.2008 50.6493C48.7192 51.0551 49.3663 51.3512 50.0814 51.5108C51.4382 51.8152 53.0226 51.6372 54.4611 50.8279" fill="white"/>
<path fill-rule="evenodd" clip-rule="evenodd" d="M75.2663 44.0251C76.6469 42.6378 77.8637 41.1021 78.8416 39.7314L79.3385 40.6625C80.9379 43.8489 81.7691 47.0229 81.7691 50.5944L81.7656 56.2624L81.7953 59.2002C81.9109 66.4133 83.4787 73.7107 87.029 80.3891L79.6007 74.4245L74.3451 82.9175L68.8236 77.7415L59.9998 92.0004L51.176 77.7421L45.6546 82.9181L40.3989 74.4251L32.9707 80.3897C36.521 73.7113 38.0881 66.4133 38.2043 59.2008L38.2341 56.263L38.2305 50.595C38.2305 47.0229 39.0612 43.8495 40.6611 40.663L41.1575 39.732C42.1359 41.1021 43.3521 42.6378 44.7328 44.0257L44.3014 44.9176C43.4636 46.6496 43.1865 48.5864 43.839 50.4289C44.2597 51.615 45.0271 52.6327 46.0169 53.4094C46.9781 54.1636 48.1156 54.6721 49.3062 54.9391C50.082 55.113 50.8721 55.1848 51.6575 55.1605C51.4746 56.1947 51.3941 57.267 51.3894 58.36L44.3824 62.3902L49.7894 65.4081C50.2214 65.6496 50.6332 65.9255 51.0193 66.2347C55.4771 70.2204 58.1574 82.0114 59.9992 87.7708C61.8411 82.0114 64.5214 70.2204 68.9792 66.2347C69.3653 65.9261 69.777 65.6496 70.209 65.4081L75.6161 62.3902L68.6091 58.36C68.6037 57.267 68.5239 56.1947 68.341 55.1605C69.1263 55.1848 69.9165 55.113 70.6923 54.9391C71.8829 54.6721 73.0204 54.1636 73.9816 53.4094C74.9713 52.6327 75.7388 51.615 76.1595 50.4289C76.812 48.587 76.5349 46.6502 75.6971 44.9176L75.2657 44.0257L75.2663 44.0251Z" fill="white"/>
</g>
<defs>
<clipPath id="clip0_284_194">
<rect width="54.0583" height="64" fill="white" transform="translate(32.9707 28)"/>
</clipPath>
</defs>
</svg>
