<svg width="120" height="120" viewBox="0 0 120 120" fill="none" xmlns="http://www.w3.org/2000/svg">
<rect x="2.5" y="2.5" width="115" height="115" stroke="black" stroke-width="5"/>
<path fill-rule="evenodd" clip-rule="evenodd" d="M52.919 31.619C49.1327 33.605 46.0351 35.2857 46.0359 35.3541C46.0376 35.5304 55.1227 40.1638 55.4452 40.1525C55.5918 40.1477 56.6559 39.6543 57.8098 39.0567L59.908 37.97L62.1993 39.1561L64.4906 40.3424L68.2431 38.6446C73.8972 36.0861 74.4843 35.8057 74.3924 35.7116C74.2703 35.5866 72.2424 34.4897 66.7402 31.5727C64.0811 30.1628 61.5002 28.7807 61.0046 28.5008C60.5089 28.2207 60.036 27.9957 59.9533 28.0001C59.8706 28.0044 56.705 29.6328 52.9187 31.6188L52.919 31.619ZM36.3127 40.2781L32.3714 42.3284V51.3257C32.3714 56.2743 32.4231 60.3231 32.4867 60.3231C32.5503 60.3231 34.4892 59.4766 36.7957 58.442L40.9898 56.5608V47.0771L43.0393 48.2014C44.6185 49.0671 46.199 49.9308 47.78 50.7929L50.4711 52.2601L51.6686 51.7148C52.4196 51.3721 53.1692 51.0264 53.9172 50.6771C54.4951 50.4059 55.914 49.7624 57.0702 49.2468C58.2265 48.7309 59.2967 48.2119 59.4483 48.0937C59.6499 47.9366 57.1919 46.5688 50.3566 43.0342C45.2044 40.3699 40.8236 38.1984 40.6215 38.2089C40.4194 38.2194 38.4806 39.1502 36.3127 40.2778V40.2781ZM75.1023 40.8537C72.418 42.0739 70.2198 43.1211 70.2173 43.1808C70.215 43.2405 71.6779 44.1165 73.4686 45.1272C75.259 46.1383 76.7242 47.0194 76.7242 47.0858C76.7242 47.1521 75.1397 47.9251 73.2034 48.8041C71.2666 49.6829 66.3717 51.909 62.3253 53.7509L48.767 59.9222C45.3563 61.4748 42.2821 62.8741 41.9352 63.0323C34.9689 66.2079 33.0542 67.089 32.7913 67.2402C32.5269 67.3924 32.4671 68.2771 32.42 72.7175L32.3638 78.0136L35.8884 79.8219L39.4128 81.6303L44.3001 79.4093C46.9882 78.1878 49.1874 77.1245 49.1874 77.0461C49.1874 76.9677 48.6906 76.6422 48.0839 76.3216C47.4769 76.001 46.2234 75.2916 45.2985 74.7444C44.3737 74.1973 43.4516 73.6954 43.249 73.6288C43.0467 73.5624 42.884 73.4463 42.8874 73.3705C42.8907 73.2949 45.0428 72.2656 47.6695 71.0829C52.7714 68.7858 56.6757 67.0154 65.0579 63.1986C68.806 61.492 72.5549 59.7872 76.3038 58.0824C79.5986 56.5847 83.4297 54.8358 84.817 54.1956L87.3394 53.0318L87.3954 47.6755L87.4517 42.3194L83.8769 40.4719C81.9106 39.4557 80.2301 38.6269 80.142 38.6299C80.0539 38.6328 77.7858 39.6335 75.1018 40.854L75.1023 40.8537ZM86.382 60.1773C85.8552 60.4364 84.8147 60.9215 84.0698 61.2552C83.3249 61.5889 81.9113 62.2311 80.9284 62.6827L79.1418 63.5033L79.1011 68.2056C79.0787 70.7918 78.984 72.8964 78.8908 72.8828C78.6794 72.851 75.3306 71.1216 71.9645 69.3053C69.5349 67.9944 69.3822 67.9424 68.8114 68.2271C68.4813 68.3919 66.5086 69.2828 64.4275 70.2072C62.3464 71.1316 60.5761 71.9484 60.4926 72.0222C60.4096 72.096 64.5978 74.3818 69.8001 77.1022L79.2586 82.0482L83.2992 79.9434C85.5212 78.786 87.4107 77.7301 87.4977 77.5974C87.6937 77.2988 87.6769 59.6649 87.4807 59.6888C87.4031 59.6983 86.9086 59.9179 86.3817 60.177L86.382 60.1773ZM64.0071 80.875C63.3062 81.1784 62.6055 81.4824 61.9051 81.7866C59.7899 82.7082 60.2042 82.7387 57.6877 81.4772C56.0115 80.6371 55.2889 80.3778 54.9754 80.5036C54.7402 80.5979 52.7156 81.5152 50.4762 82.5418C48.2368 83.5685 46.327 84.4084 46.2321 84.4084C45.2924 84.4084 46.8546 85.3482 52.8818 88.4097L59.9505 92L62.9246 90.5215C64.5604 89.7083 67.8598 88.0796 70.2567 86.9028C72.6534 85.7254 74.5849 84.7315 74.5487 84.6941C74.5123 84.6567 72.504 83.6182 70.0857 82.3865L65.6886 80.1471L64.0071 80.8755V80.875Z" fill="#08A2C9"/>
</svg>
