<svg width="120" height="120" viewBox="0 0 120 120" fill="none" xmlns="http://www.w3.org/2000/svg">
<rect x="2.5" y="2.5" width="115" height="115" stroke="black" stroke-width="5"/>
<g clip-path="url(#clip0_284_202)">
<path d="M87.8139 44.1657V60.1127L74.0007 52.1392L60.1875 44.1283L74.0382 36.1922L87.8514 28.2188L87.8139 44.1657Z" fill="#072B38"/>
<path d="M60.1499 60.0749V76.0219L46.3367 68.0484L32.5234 60.0375L46.3367 52.1014L60.1499 44.1279V60.0749Z" fill="#144556"/>
<path d="M32.5234 44.0905V28.1436L46.3367 36.117L60.1499 44.0905L46.3367 52.1014L32.5234 60.0375V44.0905Z" fill="#41D9BF"/>
<path d="M32.4854 75.9841L32.5228 60.0371L46.336 68.048L60.1492 76.0215L46.336 83.995L32.4854 91.931V75.9841Z" fill="#072B38"/>
<path d="M74.0007 52.1388L60.1875 44.1279V76.0219L73.9633 84.0328L87.7765 92.0063V76.0593L87.8139 60.1123L74.0007 52.1388Z" fill="#41D9BF"/>
</g>
<defs>
<clipPath id="clip0_284_202">
<rect width="55.6522" height="64" fill="white" transform="translate(32.1738 28)"/>
</clipPath>
</defs>
</svg>
