<svg width="120" height="120" viewBox="0 0 120 120" fill="none" xmlns="http://www.w3.org/2000/svg">
<rect x="2.5" y="2.5" width="115" height="115" stroke="black" stroke-width="5"/>
<g clip-path="url(#clip0_284_210)">
<path d="M79.6517 33.2513C75.426 29.7641 69.6414 28.041 62.2568 28.041H43.8773V30.6256H61.9286C68.2055 30.6256 73.8671 31.8974 77.3543 34.9333C80.8414 37.9692 83.426 42.4 83.426 47.8974C83.426 53.3949 81.1286 57.1282 77.5594 60.1231C73.9902 63.1179 67.5081 64.4308 61.0671 64.4308H40.3491V67.0154H61.2312C68.985 67.0154 75.0568 65.3333 79.4466 61.9692C83.7953 58.6051 86.0107 53.8461 86.0107 47.7333C86.0107 41.6205 83.8773 36.6974 79.6517 33.2513Z" fill="white"/>
<path d="M78.0924 36.9433C75.4667 34.933 72.4719 33.333 63.9385 33.333H49.7437V35.8356C49.7437 35.8356 56.1026 35.7535 63.6103 35.8356C70.8719 35.9176 73.5385 36.7381 76.0001 38.5433C79.118 40.8407 81.0872 43.7125 81.0872 47.692C81.0872 51.6715 79.118 54.2561 75.959 56.5945C72.759 58.974 67.836 58.974 65.8257 59.0561H55.2821V61.5587C55.2821 61.5587 60.1231 61.6407 63.159 61.5587C70.0513 61.3945 74.1539 60.9843 77.9693 58.1535C81.5385 55.4869 83.4257 51.9997 83.4257 47.5689C83.4257 41.7433 80.4719 38.8304 78.0924 36.9433Z" fill="white"/>
<path d="M76.8208 40.2671C74.8516 39.0363 73.1285 38.2158 64.9644 38.2158H54.749V39.8568H64.6772C71.8978 39.8568 74.6054 41.1286 75.467 41.662C77.108 42.6466 79.2413 44.2876 79.2413 47.5697C79.2413 49.662 78.0106 52.3286 76.1644 53.3543C74.4824 54.2979 71.4054 55.1594 66.0311 55.1594H32.7183V56.8004H66.1131C72.6362 56.8004 74.8516 56.062 77.149 54.7902C79.4465 53.5184 81.0054 50.8927 81.0054 47.5697C81.0054 43.7953 78.9131 41.5799 76.8208 40.2671Z" fill="white"/>
<path d="M83.3021 58.4407C79.0764 54.9535 73.2918 53.2305 65.9072 53.2305H53.5995V55.8151H65.538C71.8149 55.8151 77.4764 57.1279 80.9636 60.1228C84.4508 63.1177 87.0764 67.5894 87.0764 73.0869C87.0764 78.5843 84.82 82.3176 81.2098 85.3125C77.5995 88.3074 71.1585 89.6202 64.7175 89.6202H43.9995V92.2048H64.8816C72.6354 92.2048 78.7072 90.5228 83.097 87.1587C87.4867 83.7946 89.6611 79.0356 89.6611 72.9228C89.62 66.7279 87.5277 61.9279 83.3021 58.4407Z" fill="white"/>
<path d="M81.744 62.1337C79.1184 60.1645 76.1235 58.5234 67.5902 58.5234H48.3081V61.026C48.3081 61.026 59.7543 60.9439 67.262 61.026C74.5235 61.1081 77.1902 61.9286 79.6517 63.7337C82.7696 66.0311 84.7389 68.9029 84.7389 72.8824C84.7389 76.8619 82.7696 79.4465 79.6107 81.785C76.4107 84.1645 71.4876 84.1645 69.4773 84.2465H58.9337V86.7491C58.9337 86.7491 63.8158 86.8311 66.8107 86.7491C73.703 86.585 77.8055 86.1747 81.6209 83.3439C85.1902 80.6773 87.0773 77.1901 87.0773 72.7593C87.0773 66.9747 84.1645 64.0209 81.744 62.1337Z" fill="white"/>
<path d="M52.4106 70.6664H70.503V69.2715H52.4106V70.6664Z" fill="white"/>
<path d="M59.8765 75.5491H70.379V74.3594H59.8765V75.5491Z" fill="white"/>
<path d="M43.9995 70.6664H49.3328V69.2715H43.9995V70.6664Z" fill="white"/>
<path d="M40.6362 75.6312H56.9234V74.2363H40.6362V75.6312Z" fill="white"/>
<path d="M44.6567 39.7337H51.0157V38.585H44.6567V39.7337Z" fill="white"/>
<path d="M40.2671 49.0872H54.7491V47.7744H40.2671V49.0872Z" fill="white"/>
<path d="M40.6362 86.5844H55.9388V84.9434H40.6362V86.5844Z" fill="white"/>
<path d="M36.8618 92.0406H40.6772V89.6201H36.8618V92.0406Z" fill="white"/>
<path d="M46.3794 44.9847H70.4204V43.6719H46.3794V44.9847Z" fill="white"/>
<path d="M58.3999 49.0872H69.9691V47.7744H58.3999V49.0872Z" fill="white"/>
<path d="M80.4722 65.7026C78.503 64.5129 76.7799 63.6924 68.6158 63.6924H55.6517V65.2924H68.3696C75.5901 65.2924 78.3389 66.5232 79.1594 67.0155C80.7594 67.959 82.9337 69.518 82.9337 72.718C82.9337 74.7693 81.703 77.3129 79.8568 78.2975C78.1748 79.2001 75.0978 80.0206 69.7235 80.0206H36.3696V81.6206H69.7645C76.2876 81.6206 78.503 80.9232 80.8004 79.6924C83.0978 78.4616 84.6158 75.959 84.6158 72.718C84.6568 69.1488 82.5645 67.0155 80.4722 65.7026Z" fill="white"/>
</g>
<defs>
<clipPath id="clip0_284_210">
<rect width="59.7333" height="64" fill="white" transform="translate(30.1333 28)"/>
</clipPath>
</defs>
</svg>
