<svg width="120" height="120" viewBox="0 0 120 120" fill="none" xmlns="http://www.w3.org/2000/svg">
<rect x="2.5" y="2.5" width="115" height="115" stroke="black" stroke-width="5"/>
<path fill-rule="evenodd" clip-rule="evenodd" d="M84.4926 80.5986C89.1792 75.0324 92.0029 67.846 92.0029 60C92.0029 42.3269 77.676 28 60.0029 28C42.3298 28 28.0029 42.3269 28.0029 60C28.0029 77.6731 42.3298 92 60.0029 92C66.3267 92 72.2221 90.1657 77.1859 87L72.549 82.5065C70.5551 80.5743 67.8499 79.6152 65.1359 79.813C64.3386 80.0189 63.5224 80.178 62.6905 80.2872L62.5625 80.3209L62.5737 80.3022C61.7316 80.4077 60.8736 80.4621 60.0029 80.4621C48.702 80.4621 39.5408 71.3009 39.5408 60C39.5408 48.6991 48.702 39.5379 60.0029 39.5379C71.3038 39.5379 80.465 48.6991 80.465 60C80.465 64.6174 78.9356 68.8776 76.3558 72.3016L76.6425 72.4809L84.4926 80.5986Z" fill="#00E8B5"/>
<circle cx="60.0002" cy="60.0002" r="12.8" fill="#C74AE3"/>
</svg>
