<svg width="20" height="24" viewBox="0 0 20 24" fill="none" xmlns="http://www.w3.org/2000/svg">
<path d="M15.8678 4.1183C14.996 3.12295 14.5156 1.84472 14.5161 0.52157L10.5751 0.521315L10.574 16.3364C10.5436 17.1922 10.1822 18.0028 9.56603 18.5975C8.94984 19.1922 8.12691 19.5246 7.27054 19.5247C5.45946 19.5245 3.95458 18.045 3.9547 16.2084C3.95484 14.0147 6.07212 12.3695 8.25302 13.0457L8.25328 9.01537C3.85317 8.4284 0.00121972 11.8462 0.000937254 16.2081C0.000662225 20.4552 3.52059 23.4782 7.25753 23.4784C11.2623 23.4787 14.5148 20.2266 14.5151 16.2091L14.5156 8.18676C16.1136 9.33454 18.0322 9.95043 19.9997 9.94718L20 6.00617C20 6.00617 17.6022 6.1208 15.8678 4.1183Z" fill="black"/>
</svg>
