<svg width="25" height="26" viewBox="0 0 25 26" fill="none" xmlns="http://www.w3.org/2000/svg">
<rect y="0.5" width="25" height="25" rx="4" fill="black"/>
<path d="M9.97416 15.4029L14.8111 6.31816C14.8776 6.19305 14.9441 6.06958 15.0043 5.94035C15.0589 5.82346 15.1048 5.70576 15.1349 5.57817C15.1982 5.30984 15.1808 5.02998 15.0826 4.77399C14.9873 4.52178 14.8148 4.30919 14.5918 4.16899C14.373 4.03123 14.1155 3.97519 13.8619 4.01013C13.6086 4.04552 13.3766 4.16982 13.1938 4.36407C13.1067 4.45462 13.0354 4.55751 12.9697 4.66698C12.8969 4.78716 12.8312 4.91227 12.7647 5.03738L12.4591 5.6111L12.1528 5.03656C12.0863 4.91227 12.0206 4.78716 11.9477 4.66698C11.8836 4.55779 11.8085 4.45598 11.7237 4.36325C11.5453 4.17113 11.31 4.04679 11.0555 4.01013C10.8022 3.97538 10.545 4.03141 10.3264 4.16899C10.1034 4.30919 9.93095 4.52178 9.83563 4.77399C9.73781 5.02978 9.71954 5.31102 9.78338 5.57817C9.81346 5.70576 9.85938 5.82346 9.91321 5.94035C9.97337 6.06958 10.0399 6.19305 10.1064 6.31816L11.0943 8.17347L7.24537 15.4021H4.60762C4.47463 15.4021 4.34163 15.4021 4.20943 15.4103C4.0891 15.4178 3.97193 15.4334 3.85477 15.4688C3.60936 15.5429 3.39404 15.6993 3.23887 15.9199C3.08375 16.1419 3.00014 16.4092 3 16.6836C2.99986 16.958 3.08319 17.2254 3.23808 17.4476C3.39404 17.6682 3.60857 17.8237 3.85477 17.8986C3.97193 17.934 4.0891 17.9497 4.20943 17.9571C4.34163 17.9653 4.47463 17.9653 4.60762 17.9653H14.9758C15.0072 17.8933 15.0337 17.819 15.0549 17.7431C15.3835 16.5775 14.5673 15.4021 13.4439 15.4021L9.97416 15.4029ZM5.46497 18.3843L4.83799 19.619C4.77308 19.7474 4.70737 19.8741 4.64879 20.0067C4.59473 20.126 4.5523 20.2506 4.52213 20.3787C4.4586 20.6529 4.47626 20.9407 4.57279 21.2043C4.66858 21.466 4.8372 21.6842 5.05332 21.8258C5.26944 21.9673 5.51959 22.0249 5.76659 21.9879C6.01516 21.9517 6.24157 21.8249 6.42048 21.6257C6.50598 21.5311 6.57564 21.4265 6.64056 21.3146C6.71181 21.1911 6.77593 21.0627 6.84084 20.9343L7.75044 19.1432C7.67919 19.0197 7.00076 17.9332 5.46497 18.3843ZM21.7617 15.91C21.609 15.6951 21.3921 15.5388 21.145 15.4655C21.0293 15.4321 20.9103 15.4125 20.7904 15.4071C20.6574 15.3988 20.5252 15.3988 20.3922 15.3988H17.7631L14.2878 8.96614C13.8317 9.46376 13.5342 10.0955 13.436 10.7754C13.3084 11.6256 13.4607 12.4957 13.8683 13.2447L18.0434 20.9763C18.1099 21.0998 18.1756 21.2232 18.2484 21.3418C18.3149 21.4488 18.3862 21.55 18.4724 21.6414C18.6553 21.8323 18.8873 21.9542 19.1414 21.9896C19.3955 22.0249 19.6504 21.9698 19.8713 21.8332C20.0934 21.695 20.266 21.4852 20.3629 21.2356C20.4618 20.9829 20.4785 20.7071 20.4151 20.4421C20.3838 20.3186 20.34 20.1988 20.2845 20.0849C20.2251 19.9573 20.1578 19.8354 20.0913 19.712L19.1287 17.9291H20.3922C20.5252 17.9291 20.6574 17.9291 20.7904 17.9217C20.9107 17.9143 21.0279 17.8986 21.145 17.8641C21.3925 17.7907 21.6097 17.6341 21.7625 17.4188C21.9172 17.2003 22.0005 16.9361 22 16.6648C22.0005 16.3935 21.9172 16.1292 21.7625 15.9108" fill="white"/>
</svg>
