<svg width="39" height="39" viewBox="0 0 39 39" fill="none" xmlns="http://www.w3.org/2000/svg">
<path d="M13.7923 0.453925L29.2506 2.04479C35.1395 2.65084 39.4318 7.92798 38.8258 13.8169L37.2349 29.2752C36.9436 32.1061 35.5397 34.7052 33.332 36.5009C31.1243 38.2966 28.2937 39.1417 25.4629 38.8504L10.0045 37.2595C4.1156 36.6535 -0.176718 31.3763 0.429327 25.4875L2.0202 10.0291C2.31152 7.19827 3.71546 4.59912 5.92315 2.80343C8.13085 1.00774 10.9615 0.162597 13.7923 0.453925ZM13.0454 4.09661C11.2884 3.91578 9.53145 4.44036 8.16116 5.55492C6.79087 6.66949 5.91946 8.28276 5.73863 10.0398L4.07201 26.2343C3.69513 29.8964 6.35306 33.1642 10.0152 33.5411L26.2097 35.2077C27.9667 35.3885 29.7237 34.864 31.094 33.7494C32.4643 32.6348 33.3357 31.0216 33.5165 29.2645L35.1831 13.07C35.56 9.40788 32.9021 6.14012 29.2399 5.76323L13.0454 4.09661ZM30.5201 8.68463C31.1302 8.74742 31.6903 9.04999 32.0773 9.52579C32.4643 10.0016 32.6465 10.6116 32.5837 11.2217C32.5209 11.8318 32.2183 12.392 31.7425 12.779C31.2667 13.166 30.6567 13.3481 30.0466 13.2853C29.4365 13.2225 28.8763 12.92 28.4893 12.4442C28.1023 11.9684 27.9202 11.3583 27.983 10.7482C28.0458 10.1382 28.3483 9.578 28.8241 9.19099C29.2999 8.80399 29.91 8.62185 30.5201 8.68463ZM20.5745 10.4508C23.0149 10.7019 25.2555 11.9122 26.8035 13.8154C28.3515 15.7186 29.0801 18.1587 28.829 20.5991C28.5778 23.0395 27.3675 25.2801 25.4643 26.8281C23.5612 28.3761 21.121 29.1047 18.6806 28.8536C16.2403 28.6024 13.9996 27.3921 12.4516 25.4889C10.9036 23.5858 10.175 21.1456 10.4262 18.7052C10.6773 16.2649 11.8876 14.0242 13.7908 12.4762C15.694 10.9282 18.1341 10.1996 20.5745 10.4508ZM20.1957 14.1313C18.7315 13.9806 17.2674 14.4178 16.1255 15.3466C14.9836 16.2754 14.2574 17.6198 14.1067 19.084C13.956 20.5482 14.3932 22.0123 15.322 23.1542C16.2508 24.2961 17.5952 25.0223 19.0594 25.173C20.5236 25.3237 21.9877 24.8866 23.1296 23.9577C24.2715 23.0289 24.9977 21.6845 25.1484 20.2203C25.2991 18.7561 24.862 17.292 23.9331 16.1501C23.0043 15.0082 21.66 14.282 20.1957 14.1313Z" fill="white"/>
</svg>
