<svg width="42" height="36" viewBox="0 0 42 36" fill="none" xmlns="http://www.w3.org/2000/svg">
<path fill-rule="evenodd" clip-rule="evenodd" d="M37.5852 0.246287C38.0996 0.028213 38.6626 -0.0469992 39.2157 0.0284778C39.7688 0.103955 40.2916 0.327363 40.7299 0.675447C41.1681 1.02353 41.5057 1.48357 41.7076 2.00767C41.9094 2.53178 41.9681 3.1008 41.8775 3.6555L37.1564 32.4996C36.6984 35.2819 33.6676 36.8774 31.1343 35.4915C29.0152 34.3321 25.8678 32.5457 23.0368 30.6817C21.6213 29.7487 17.2853 26.7609 17.8182 24.6349C18.2762 22.8171 25.5618 15.9861 29.725 11.9248C31.3591 10.3292 30.6139 9.40879 28.6842 10.8765C23.8924 14.5205 16.1987 20.062 13.655 21.622C11.411 22.9974 10.2412 23.2322 8.84232 22.9974C6.29027 22.5697 3.92348 21.9071 1.99174 21.0999C-0.6186 20.0096 -0.491622 16.3949 1.98966 15.3424L37.5852 0.246287Z" fill="black"/>
</svg>
