<svg width="51" height="52" viewBox="0 0 51 52" fill="none" xmlns="http://www.w3.org/2000/svg">
<path d="M41.969 11.0822C40.4611 8.43876 39.9652 5.33745 40.5735 2.35562L31.6916 0.546091L24.4301 36.1887C23.9686 38.1036 22.7821 39.7646 21.1204 40.8221C19.4587 41.8796 17.4514 42.251 15.5214 41.858C11.4397 41.0265 8.72721 37.0011 9.57049 32.862C10.5777 27.918 16.1047 25.1821 20.7095 27.707L22.5601 18.6238C12.9127 15.2813 2.6626 21.2161 0.659824 31.0466C-1.29025 40.6184 5.25523 49.047 13.6772 50.7628C22.7029 52.6016 31.5259 46.7652 33.3706 37.7108L37.054 19.6308C40.1287 22.9511 44.1701 25.2198 48.6059 26.1156L50.4154 17.2337C50.4154 17.2337 44.9588 16.3914 41.969 11.0822Z" fill="white"/>
</svg>
